<svg xmlns="http://www.w3.org/2000/svg" xml:space="preserve" width="800" height="800" viewBox="0 0 296.999 296.999"><path d="M70.331 258.613c4.538-4.538 11.228-5.611 16.784-3.219 3.344 1.439 7.222.736 9.797-1.839l.645-.645c2.574-2.574 3.278-6.452 1.839-9.797-2.392-5.556-1.318-12.247 3.219-16.784 4.538-4.538 11.228-5.611 16.784-3.219 3.344 1.439 7.222.736 9.797-1.839l.645-.645c2.574-2.574 3.278-6.452 1.839-9.797-2.392-5.556-1.318-12.247 3.219-16.784 4.538-4.538 11.228-5.611 16.784-3.219 3.344 1.439 7.222.736 9.797-1.839l27.009-27.009-53.807-53.807L11.143 231.71c-14.858 14.858-14.858 38.949 0 53.807 14.858 14.858 38.949 14.858 53.807 0l.323-.323c2.574-2.574 3.278-6.452 1.839-9.797-2.392-5.555-1.319-12.246 3.219-16.784z" style="fill:#66a7f7"/><path d="M285.56.339s-29.039 34.43-75.33 32.284l-75.33 75.33 53.807 53.807s56.655-56.341 75.33-75.33C279.592 70.613 315.234 33.493 285.56.339z" style="fill:#c2cacc"/><path d="M10.969 285.333c.059.06.114.123.174.183 14.858 14.858 38.949 14.858 53.807 0l.323-.323c2.574-2.574 3.278-6.452 1.839-9.797-2.392-5.556-1.318-12.247 3.219-16.784 4.538-4.538 11.228-5.611 16.784-3.219 3.344 1.439 7.222.736 9.797-1.839l.645-.645c2.574-2.574 3.278-6.452 1.839-9.797-2.392-5.556-1.318-12.246 3.219-16.784 4.538-4.538 11.228-5.611 16.784-3.219 3.344 1.439 7.222.736 9.797-1.839l.645-.645c2.574-2.574 3.278-6.452 1.839-9.797-2.392-5.556-1.318-12.247 3.219-16.784 4.538-4.538 11.228-5.611 16.784-3.219 3.344 1.439 7.222.736 9.797-1.839l27.009-27.009-27.082-27.082L10.969 285.333z" style="fill:#4f98e0"/><path d="m161.624 134.678 27.082 27.082s56.655-56.341 75.33-75.33c14.646-14.892 47.087-48.665 26.07-80.235L161.624 134.678z" style="fill:#aeb6b7"/><circle cx="156.423" cy="140.238" r="38.047" style="fill:#313052"/><path d="m183.143 113.16-53.798 53.798c.059.06.114.123.174.183 14.858 14.858 38.949 14.858 53.807 0 14.858-14.858 14.858-38.949 0-53.807-.06-.06-.124-.115-.183-.174z" style="fill:#262644"/><circle cx="156.423" cy="140.238" r="22.828" style="fill:#505089"/><path d="m172.376 123.926-32.266 32.266c.06.061.109.128.17.188 8.915 8.915 23.369 8.915 32.284 0s8.915-23.369 0-32.284c-.059-.061-.126-.111-.188-.17z" style="fill:#447"/></svg>